# ProBuilder 5.1.1
# https://unity3d.com/unity/features/worldbuilding/probuilder
# 1/11/2024 8:22:58 PM

mtllib ./Rock.mtl
o Rock

g Rock
v -0.01624009 0.07463879 -0.01806493
v 0.1068319 0.0717046 -0.1535099
v 0.03641763 0.07642591 -0.2403362
v -0.1405129 0.07790964 -0.2029044
v -0.1581804 0.08018402 -0.04823499
v -0.1886601 0 -0.03108949
v -0.1656265 0 -0.2227914
v -0.0225628 0 0.02803584
v 0.0536626 0 -0.2785721
v 0.1421224 0 -0.1519144
v -0.2040518 0.02749944 -0.02592885
v -0.1834235 0.02 -0.23363
v -0.2091734 0.05906392 -0.01968184
v -0.1614079 0.06298578 -0.2251782
v 0.002749205 0.02 0.05344704
v -0.02616069 0.05906392 0.0423457
v 0.06109306 0.02 -0.2951199
v 0.1655598 0.02 -0.1507366
v 0.04966223 0.05152277 -0.2814723
v 0.1655599 0.04504293 -0.1507366

vt 0.02701296 0.01196249
vt -0.1068317 -0.1535099
vt -0.03641746 -0.2606767
vt 0.140513 -0.2029044
vt 0.1581803 -0.04823499
vt -0.1886601 -0.03108949
vt -0.1656265 -0.2227914
vt -0.01843783 0.04779494
vt 0.04824594 -0.295554
vt 0.1421224 -0.1519144
vt 0.006445615 0.02
vt -0.2117563 0.02
vt 0.006445615 0.05906392
vt -0.2117563 0.05906392
vt 0.01870756 0.02
vt -0.1979045 0.02
vt 0.01870756 0.05906392
vt -0.1979045 0.05906392
vt 0.2366301 0.02
vt 0.03607642 0.02
vt 0.2366301 0.05906392
vt 0.03607642 0.05906392
vt 0.09461328 0.02
vt -0.1575926 0.02
vt 0.09461328 0.05906392
vt -0.1575926 0.05906392
vt 0.2211632 0.02
vt -0.06408022 0.02
vt 0.2211632 0.05906392
vt -0.06408022 0.05906392
vt 0.1111972 -0.03981978
vt 0.09602913 -0.1947709
vt 0.1663641 -0.01121461
vt 0.1212133 -0.2173061
vt 0.01510367 -0.03602494
vt 0.1569432 -0.06716263
vt 0.02525987 0.02632319
vt 0.2082515 -0.03446491
vt 0.006989461 -0.1973922
vt -0.05623507 -0.1050779
vt -0.01698791 -0.2411283
vt -0.120402 -0.100257
vt 0.1310344 -0.1313128
vt -0.04464669 -0.1742539
vt 0.1534517 -0.1568649
vt -0.05505583 -0.2229587
vt -0.06924465 -0.1804129
vt 0.04473212 -0.0372
vt -0.1337343 -0.1774806
vt 0.04759681 0.02586031
vt -0.02086309 0.02930156
vt 0.1314159 -0.1612618
vt 0.01015761 0.05621146
vt 0.1607033 -0.1570008
vt 0.1064618 -0.09833621
vt 0.04019787 -0.2378941
vt 0.1372679 -0.09703846
vt 0.05901339 -0.2571363
vt -0.1206801 0.1486729
vt 0.1055924 0.1486729
vt -0.1319606 0.1732043
vt 0.1201681 0.1736016
vt -0.201442 0.1314308
vt -0.008361305 0.1314308
vt -0.2100801 0.1589914
vt -0.001401364 0.1614773
vt -0.1881611 0.01163633
vt -0.01185428 0.01163633
vt -0.2009309 0.04090559
vt 0.02051372 0.03571837

vn 0.03302173 0.9993963 -0.004516507
vn 0.02092419 0.9993613 0.0207633
vn 0.01696074 0.9990328 0.04056913
vn 0.02766806 0.9992751 0.01051204
vn 0.04115582 0.9991028 -0.009990484
vn 0 -1 0
vn -0.9855732 -0.1415581 -0.09277304
vn -0.9218334 0.1676749 -0.1415631
vn -0.8580936 0.4769079 -0.1903533
vn -0.3583343 0.0001211601 0.9335933
vn -0.3352472 -0.1164068 0.927312
vn -0.31216 -0.2329347 0.9210307
vn 0.7106133 0.4802844 -0.5141553
vn 0.729454 0.2401404 -0.5887609
vn 0.7482948 -3.562031E-06 -0.6633663
vn -0.232575 0.3009577 -0.9248424
vn -0.2305155 0.3084053 -0.9228679
vn -0.228456 0.3158529 -0.9208935
vn 0.7818696 -3.721854E-06 0.6234419
vn 0.6871116 0.2966421 0.5842677
vn 0.5923535 0.5932878 0.5450934
vn -0.4105817 0.9098293 -0.06027833
vn -0.4576558 0.8835915 -0.08061758
vn -0.50473 0.8573537 -0.1009568
vn -0.01472806 0.9688123 0.2473575
vn -0.07757907 0.9340175 0.3308488
vn -0.1404301 0.8992228 0.4143401
vn 0.4733141 0.8127797 -0.3396512
vn 0.4389185 0.8354752 -0.3278638
vn 0.404523 0.8581707 -0.3160764
vn -0.09640767 0.8663554 -0.4900346
vn -0.0972605 0.8516867 -0.514171
vn -0.09811333 0.8370179 -0.5383074
vn 0.3781961 0.8668495 0.3248688
vn 0.3664575 0.8782427 0.3062418
vn 0.3547189 0.889636 0.2876149
vn 0.3595689 -0.8731697 0.3290669
vn 0.4627928 -0.781523 0.3901967
vn 0.5660167 -0.6898763 0.4513266
vn 0.6012371 -0.6798431 -0.4199136
vn 0.6191003 -0.6489033 -0.4403903
vn 0.6369637 -0.6179636 -0.460867
vn -0.200983 -0.5790665 -0.7901189
vn -0.1983916 -0.5876253 -0.7843623
vn -0.1958001 -0.596184 -0.7786058
vn -0.7204895 -0.6880413 -0.08656888
vn -0.79825 -0.5826299 -0.0781704
vn -0.8760105 -0.4772185 -0.06977193
vn -0.3150769 -0.3424577 0.8851267
vn -0.3137025 -0.4563063 0.8224893
vn -0.3123281 -0.5701548 0.7598518

usemtl Rock
f 1/1/1 4/4/4 5/5/5
f 4/4/4 2/2/2 3/3/3
f 1/1/1 2/2/2 4/4/4
f 7/7/6 10/10/6 8/8/6
f 9/9/6 10/10/6 7/7/6
f 6/6/6 7/7/6 8/8/6
f 14/14/9 12/12/8 11/11/7
f 11/11/7 13/13/8 14/14/9
f 13/18/12 11/16/11 15/15/10
f 15/15/10 16/17/11 13/18/12
f 20/22/15 18/20/14 17/19/13
f 17/19/13 19/21/14 20/22/15
f 19/26/18 17/24/17 12/23/16
f 12/23/16 14/25/17 19/26/18
f 16/30/21 15/28/20 18/27/19
f 18/27/19 20/29/20 16/30/21
f 13/33/23 5/31/22 4/32/23
f 4/32/23 14/34/24 13/33/23
f 16/37/26 1/35/25 5/36/26
f 5/36/26 13/38/27 16/37/26
f 19/41/29 3/39/28 2/40/29
f 2/40/29 20/42/30 19/41/29
f 14/45/32 4/43/31 3/44/32
f 3/44/32 19/46/33 14/45/32
f 20/49/35 2/47/34 1/48/35
f 1/48/35 16/50/36 20/49/35
f 15/53/38 8/51/37 10/52/38
f 10/52/38 18/54/39 15/53/38
f 18/57/41 10/55/40 9/56/41
f 9/56/41 17/58/42 18/57/41
f 17/61/44 9/59/43 7/60/44
f 7/60/44 12/62/45 17/61/44
f 12/65/47 7/63/46 6/64/47
f 6/64/47 11/66/48 12/65/47
f 11/69/50 6/67/49 8/68/50
f 8/68/50 15/70/51 11/69/50

