# ProBuilder 5.1.1
# https://unity3d.com/unity/features/worldbuilding/probuilder
# 1/11/2024 8:23:16 PM

mtllib ./Boulder.mtl
o Boulder

g Boulder
v -0.04506254 0.2434211 -0.1025172
v 0.0341742 0.2289692 -0.1684732
v 0.003664494 0.2289692 -0.344598
v -0.08355522 0.2434211 -0.3869244
v -0.2532821 0.2684917 -0.3419892
v -0.3296299 0.2607094 -0.2282517
v -0.2877889 0.2794852 -0.1085297
v -0.185914 0.2684917 -0.03693876
v -0.4044355 0 -0.1997691
v -0.2533226 0 -0.4093104
v -0.3625816 0 -0.08003446
v -0.1859141 0 0.0121713
v -0.007493403 0 -0.01890931
v -0.08672599 0 -0.4539819
v 0.06126629 0 -0.3446107
v 0.1269285 0 -0.1347052
v -0.4529157 0.05 -0.2053672
v -0.2797899 0.05 -0.4451644
v -0.431819 0.1767836 -0.2053672
v -0.2797899 0.1767836 -0.4451644
v -0.3905449 0.05 -0.05570686
v -0.3783121 0.1767836 -0.05570686
v -0.1901026 0.05 0.04740316
v -0.1901026 0.1767836 0.03335899
v 0 0.05 0.03990161
v 0 0.1767836 0
v -0.07596707 0.05 -0.4999637
v 0.08387375 0.05 -0.3592983
v -0.07596707 0.1767836 -0.4999637
v 0.08387375 0.1767836 -0.3592983
v 0.1600306 0.05 -0.1212663
v 0.1218667 0.1767836 -0.1212663

vt 0.01025066 -0.02008775
vt -0.1265471 -0.1351534
vt -0.06122549 -0.344598
vt 0.08355513 -0.4540927
vt 0.2532818 -0.4091575
vt 0.4044193 -0.1997575
vt 0.3625786 -0.08003552
vt 0.1859139 0.01217088
vt -0.4044355 -0.1997691
vt -0.2533226 -0.4093104
vt -0.3625816 -0.08003446
vt -0.1859141 0.0121713
vt -0.007493403 -0.01890931
vt -0.08672599 -0.4539819
vt 0.06126629 -0.3446107
vt 0.1269285 -0.1347052
vt 0.1202576 0.05
vt -0.173402 0.05
vt 0.1202576 0.3900609
vt -0.173402 0.3900609
vt -0.201655 0.05
vt -0.3637918 0.05
vt -0.201655 0.3900609
vt -0.3637918 0.3900609
vt -0.1473632 0.05
vt -0.3727713 0.05
vt -0.1473632 0.3900609
vt -0.3727713 0.3900609
vt 0 0.05
vt -0.1959236 0.05
vt 0 0.3900609
vt -0.1959236 0.3900609
vt 0.3873257 0.05
vt 0.1744036 0.05
vt 0.3873257 0.3900609
vt 0.1744036 0.3900609
vt -0.08497883 0.05
vt -0.08497883 0.3900609
vt 0.2984869 0.05
vt 0.04016166 0.05
vt 0.2984869 0.3900609
vt 0.04016166 0.3900609
vt 0.2205643 0.05
vt 0.2205643 0.3900609
vt 0.05962289 -0.2219634
vt 0.1380781 -0.1535361
vt -0.04158571 -0.1729877
vt 0.07024682 -0.04320446
vt 0.1190323 -0.3251368
vt 0.09322524 -0.1482617
vt 0.02335048 -0.3398997
vt -0.008786377 -0.1010128
vt 0.174121 -0.2577163
vt 0.08842183 -0.210142
vt 0.1404584 -0.3847708
vt -0.005979711 -0.2303701
vt 0.2304824 -0.07007265
vt 0.06337356 -0.1294826
vt 0.2643995 -0.2064831
vt 0.06125905 -0.2588321
vt 0.05973612 -0.05244425
vt -0.001011926 -0.1754705
vt 0.1916342 -0.02769083
vt 0.08133323 -0.2892648
vt -0.161727 0.01969687
vt -0.2872523 -0.006378934
vt -0.1272526 -0.122935
vt -0.2843983 -0.1394504
vt -0.1776185 0.1853219
vt -0.3019104 0.1985938
vt -0.1442714 0.0746076
vt -0.3512143 0.06170806
vt 0.1320593 -0.178272
vt 0.2721731 -0.1066039
vt 0.06551104 -0.06623498
vt 0.242079 -0.007293275
vt -0.03381112 0.2949263
vt 0.1386707 0.2949263
vt -0.05611187 0.3599859
vt 0.154949 0.3598958
vt -0.183147 -0.2883117
vt -0.2923985 -0.0542032
vt -0.2368258 -0.3283693
vt -0.3619921 -0.06039803
vt -0.3220339 0.2084477
vt -0.195195 0.2084477
vt -0.3433158 0.2749966
vt -0.1814572 0.2687319
vt -0.3584671 0.05498691
vt -0.1591851 0.05498691
vt -0.3720009 0.1157373
vt -0.1465968 0.1149799
vt -0.1852447 -0.01119609
vt -0.00413713 -0.01119609
vt -0.1954173 0.04926336
vt -0.006847678 0.06344996
vt -0.00625423 -0.01370761
vt 0.1059385 -0.1511512
vt 0.02754044 0.05609781
vt 0.161107 -0.1271702
vt 0.09066709 0.07793451
vt 0.3106031 0.07793451
vt 0.06795838 0.1350368
vt 0.3178713 0.1342549
vt 0.1555449 0.1413371
vt 0.3395661 0.1413371
vt 0.1460931 0.1973503
vt 0.3582424 0.2055204

vn 0.1560935 0.9872661 -0.03029239
vn 0.1573585 0.9871653 -0.02725887
vn 0.1537545 0.9877491 -0.01067292
vn 0.1522205 0.9880626 0.02369209
vn 0.07499205 0.985562 -0.0290993
vn -0.2148387 0.9735619 -0.07759917
vn -0.04409104 0.9825571 -0.05278515
vn 0.142947 0.989083 -0.03156874
vn 0 -1 0
vn -0.8034979 0.1337015 -0.5800992
vn -0.8240331 0.06685074 -0.5577735
vn -0.8445683 0 -0.5354478
vn -0.9194109 0.08870982 0.3831635
vn -0.9248447 0.1217538 0.3578792
vn -0.9302786 0.1547977 0.332595
vn -0.4552339 0.0980293 0.884959
vn -0.4413095 0.06963287 0.8940439
vn -0.427385 0.04123645 0.9031288
vn 0.03761373 0.299993 0.9531996
vn 0.104716 0.2042275 0.9661696
vn 0.1718183 0.1084619 0.9791397
vn 0.6606424 0 -0.7507008
vn -0.259637 0 -0.9657063
vn 0.9524397 0 -0.3047272
vn 0.9495029 0.1424658 -0.2279056
vn 0.9465662 0.2849316 -0.1510841
vn 0.6939515 0.2088905 0.6890545
vn 0.6911932 0.2133145 0.690449
vn 0.688435 0.2177384 0.6918435
vn 0.3830096 0.884521 0.2663198
vn 0.3811866 0.8637869 0.3237808
vn 0.3793635 0.8430529 0.3812417
vn 0.5311366 0.8422757 -0.09200761
vn 0.537339 0.8385813 -0.08938189
vn 0.5435414 0.8348868 -0.08675617
vn 0.3566202 0.8150905 -0.4565626
vn 0.3870056 0.7951127 -0.4654261
vn 0.4173911 0.7751349 -0.4742897
vn -0.06183937 0.7538269 -0.6541567
vn -0.09945848 0.8015485 -0.5820048
vn -0.1370776 0.8492702 -0.5098529
vn -0.6362349 0.6707473 -0.3811866
vn -0.6404253 0.658426 -0.3949332
vn -0.6446157 0.6461048 -0.4086799
vn -0.7066707 0.6939257 0.1381436
vn -0.6491308 0.7359633 0.1748252
vn -0.5915908 0.7780008 0.2115067
vn -0.4349392 0.560239 0.704954
vn -0.3810785 0.6021485 0.6982073
vn -0.3272179 0.644058 0.6914606
vn 0.3390842 0.849883 0.4033865
vn 0.2387733 0.7241997 0.5962203
vn 0.1384623 0.5985163 0.7890541
vn -0.1990426 -0.6398184 -0.7423036
vn -0.1994178 -0.6392273 -0.7427115
vn -0.199793 -0.6386362 -0.7431195
vn -0.6183705 -0.6471103 -0.4459442
vn -0.6178122 -0.6477485 -0.4457907
vn -0.617254 -0.6483866 -0.4456371
vn -0.7092452 -0.6599295 0.2479202
vn -0.7321151 -0.6176275 0.2812797
vn -0.7549852 -0.5753256 0.3146392
vn -0.3808122 -0.5679837 0.7296413
vn -0.3808656 -0.560836 0.7350672
vn -0.3809189 -0.5536883 0.7404932
vn 0.1419249 -0.5622011 0.8147314
vn 0.08370095 -0.6627121 0.7301821
vn 0.02547698 -0.7632231 0.6456326
vn 0.4640553 -0.7031753 0.5386995
vn 0.5282626 -0.6267673 0.5634943
vn 0.59247 -0.5503592 0.5882891
vn 0.8356881 -0.4829967 -0.2614184
vn 0.8403268 -0.4722302 -0.2658799
vn 0.8449656 -0.4614637 -0.2703415
vn 0.5305355 -0.4507588 -0.7178778
vn 0.5191282 -0.5452886 -0.6474055
vn 0.5077209 -0.6398184 -0.5769332

usemtl Rock
f 7/7/7 5/5/5 6/6/6
f 7/7/7 8/8/8 5/5/5
f 8/8/8 1/1/1 5/5/5
f 5/5/5 3/3/3 4/4/4
f 5/5/5 1/1/1 3/3/3
f 2/2/2 3/3/3 1/1/1
f 13/13/9 15/15/9 16/16/9
f 15/15/9 13/13/9 10/10/9
f 14/14/9 15/15/9 10/10/9
f 10/10/9 13/13/9 12/12/9
f 10/10/9 12/12/9 11/11/9
f 9/9/9 10/10/9 11/11/9
f 20/20/12 18/18/11 17/17/10
f 17/17/10 19/19/11 20/20/12
f 19/24/15 17/22/14 21/21/13
f 21/21/13 22/23/14 19/24/15
f 22/28/18 21/26/17 23/25/16
f 23/25/16 24/27/17 22/28/18
f 24/32/21 23/30/20 25/29/19
f 25/29/19 26/31/20 24/32/21
f 30/36/22 28/34/22 27/33/22
f 27/33/22 29/35/22 30/36/22
f 29/38/23 27/37/23 18/17/23
f 18/17/23 20/19/23 29/38/23
f 32/42/26 31/40/25 28/39/24
f 28/39/24 30/41/25 32/42/26
f 26/31/29 25/29/28 31/43/27
f 31/43/27 32/44/28 26/31/29
f 32/47/31 2/45/30 1/46/31
f 1/46/31 26/48/32 32/47/31
f 30/51/34 3/49/33 2/50/34
f 2/50/34 32/52/35 30/51/34
f 29/55/37 4/53/36 3/54/37
f 3/54/37 30/56/38 29/55/37
f 20/59/40 5/57/39 4/58/40
f 4/58/40 29/60/41 20/59/40
f 19/63/43 6/61/42 5/62/43
f 5/62/43 20/64/44 19/63/43
f 22/67/46 7/65/45 6/66/46
f 6/66/46 19/68/47 22/67/46
f 24/71/49 8/69/48 7/70/49
f 7/70/49 22/72/50 24/71/49
f 26/75/52 1/73/51 8/74/52
f 8/74/52 24/76/53 26/75/52
f 27/79/55 14/77/54 10/78/55
f 10/78/55 18/80/56 27/79/55
f 18/83/58 10/81/57 9/82/58
f 9/82/58 17/84/59 18/83/58
f 17/87/61 9/85/60 11/86/61
f 11/86/61 21/88/62 17/87/61
f 21/91/64 11/89/63 12/90/64
f 12/90/64 23/92/65 21/91/64
f 23/95/67 12/93/66 13/94/67
f 13/94/67 25/96/68 23/95/67
f 25/99/70 13/97/69 16/98/70
f 16/98/70 31/100/71 25/99/70
f 31/103/73 16/101/72 15/102/73
f 15/102/73 28/104/74 31/103/73
f 28/107/76 15/105/75 14/106/76
f 14/106/76 27/108/77 28/107/76

